  <svg version="1.0" xmlns="http://www.w3.org/2000/svg"  width="1716.000000pt" height="1800.000000pt" viewBox="0 0 1716.000000 1800.000000"  preserveAspectRatio="xMidYMid meet"> <g transform="translate(0.000000,1800.000000) scale(0.100000,-0.100000)" fill="#000000" stroke="none"> <path d="M5805 14194 c-132 -38 -165 -49 -235 -82 -110 -51 -205 -119 -291 -208 -95 -99 -157 -193 -207 -314 -56 -136 -69 -188 -82 -340 -15 -178 -8 -8356 7 -8440 36 -197 131 -382 272 -534 71 -76 182 -155 294 -210 63 -31 122 -56 131 -56 10 0 26 -5 38 -11 67 -36 174 -38 1787 -39 986 0 1628 4 1715 10 247 18 505 68 711 136 163 54 189 64 207 74 10 6 22 10 27 10 6 0 49 18 98 41 48 22 108 50 133 62 232 107 528 313 744 517 212 201 358 374 507 600 120 183 186 306 264 495 20 50 41 99 46 110 31 73 96 285 122 400 8 39 20 93 26 120 11 47 17 90 42 280 14 99 6 622 -10 720 -30 183 -43 255 -57 310 -87 344 -142 496 -278 759 -162 313 -296 494 -598 806 -106 110 -297 265 -461 374 -64 42 -120 82 -123 88 -8 12 0 19 126 110 85 61 102 74 221 178 135 118 262 265 366 425 36 55 74 112 84 127 22 31 139 274 139 287 0 5 7 22 14 38 13 25 48 135 91 288 100 357 87 883 -30 1240 -8 22 -16 55 -20 72 -4 18 -11 35 -16 38 -5 4 -9 14 -9 24 0 21 -90 231 -132 309 -254 466 -662 835 -1143 1034 -135 55 -170 68 -216 77 -19 4 -40 10 -46 14 -12 8 -128 33 -263 58 -101 18 -176 19 -2025 18 -1634 0 -1927 -3 -1970 -15z m3955 -752 c182 -46 272 -77 385 -135 320 -164 627 -503 740 -817 142 -395 151 -752 28 -1105 -13 -38 -29 -83 -34 -100 -5 -16 -29 -70 -55 -120 -124 -243 -311 -457 -523 -598 -76 -51 -207 -122 -260 -141 -147 -55 -200 -71 -301 -93 -112 -24 -126 -25 -565 -27 -361 -2 -472 -5 -560 -19 -158 -24 -362 -67 -475 -101 -30 -9 -68 -21 -85 -26 -177 -53 -537 -221 -684 -319 -34 -22 -65 -41 -67 -41 -5 0 -128 -91 -248 -182 -78 -60 -359 -334 -429 -419 -131 -158 -305 -413 -358 -525 -69 -145 -45 -301 64 -420 60 -66 118 -97 211 -113 52 -9 82 -9 125 0 129 26 189 74 275 217 81 137 174 273 206 302 3 3 29 34 57 70 67 86 257 270 359 347 157 120 373 244 539 311 28 11 73 29 100 40 64 25 198 64 295 85 41 9 109 24 150 34 110 26 593 26 730 0 244 -46 441 -105 609 -183 65 -30 252 -130 300 -159 214 -135 479 -375 617 -560 116 -154 304 -461 304 -496 0 -5 11 -33 25 -61 14 -29 29 -66 35 -83 5 -16 19 -57 30 -90 40 -112 81 -276 105 -415 32 -193 35 -543 5 -715 -6 -33 -15 -85 -20 -115 -15 -87 -62 -251 -115 -399 -22 -61 -104 -239 -130 -281 -12 -19 -24 -42 -28 -50 -8 -18 -16 -30 -96 -149 -135 -200 -271 -351 -468 -520 -68 -58 -211 -162 -248 -181 -5 -3 -36 -22 -68 -43 -65 -43 -285 -151 -392 -193 -157 -61 -356 -109 -578 -138 -104 -14 -316 -16 -1707 -16 l-1588 0 -57 22 c-65 24 -131 84 -160 143 -20 40 -20 76 -20 4210 l0 4170 21 46 c42 91 120 154 209 170 22 4 866 6 1875 5 l1835 -3 85 -21z"/> <path d="M8829 8976 c-3 -3 -38 -10 -79 -16 -41 -6 -111 -20 -155 -32 -44 -11 -100 -24 -125 -30 -25 -6 -49 -14 -54 -19 -6 -5 -16 -9 -24 -9 -8 0 -48 -16 -89 -35 -41 -19 -76 -35 -78 -35 -14 0 -244 -142 -313 -193 -151 -113 -372 -353 -432 -472 -8 -17 -26 -46 -39 -65 -42 -62 -146 -283 -162 -343 -4 -18 -16 -57 -25 -87 -23 -77 -43 -172 -55 -260 -13 -99 -13 -428 0 -510 20 -123 60 -282 74 -296 4 -4 7 -16 7 -26 0 -39 114 -285 185 -398 106 -169 289 -371 439 -484 128 -97 155 -113 331 -200 238 -117 428 -163 710 -173 356 -12 612 44 915 200 185 95 290 171 426 310 238 242 341 397 444 667 18 47 36 94 41 105 4 11 13 43 19 70 6 28 19 91 30 140 73 339 29 731 -125 1100 -59 141 -99 211 -204 350 -148 197 -338 371 -531 486 -210 125 -365 181 -660 240 -62 13 -461 25 -471 15z" fill="#C14B3B"/> </g> </svg> 